<?xml version="1.0" encoding="utf-8"?>
<!-- Generator: Adobe Illustrator 22.0.1, SVG Export Plug-In . SVG Version: 6.00 Build 0)  -->
<svg version="1.1" id="rayitas" xmlns="http://www.w3.org/2000/svg" xmlns:xlink="http://www.w3.org/1999/xlink" x="0px" y="0px"
	 viewBox="0 0 490 868" style="enable-background:new 0 0 1536 868;" xml:space="preserve">
<style type="text/css">
	.st0{fill:none;stroke:#8864DD;stroke-width:5;stroke-miterlimit:10;}
	.st1{fill:none;stroke:#FFD455;stroke-width:4.5;stroke-miterlimit:10;}
	.st2{fill:none;stroke:#FF495F;stroke-width:4;stroke-miterlimit:10;}
	.st3{fill:none;stroke:#4FE084;stroke-width:3.5;stroke-miterlimit:10;}
	.st4{fill:none;stroke:#FFD455;stroke-width:3;stroke-miterlimit:10;}
	.st5{fill:none;stroke:#FF495F;stroke-width:2.5;stroke-miterlimit:10;}
	.st6{fill:none;stroke:#8864DD;stroke-width:2;stroke-miterlimit:10;}
	.st7{fill:none;stroke:#FFD455;stroke-width:1.5;stroke-miterlimit:10;}
	.st8{fill:none;stroke:#4FE084;stroke-miterlimit:10;}
	.st9{fill:none;stroke:#FF495F;stroke-width:1.5;stroke-miterlimit:10;}
	.st10{fill:none;stroke:#FFD455;stroke-width:2;stroke-miterlimit:10;}
	.st11{fill:none;stroke:#8864DD;stroke-width:2.5;stroke-miterlimit:10;}
	.st12{fill:none;stroke:#4FE084;stroke-width:3;stroke-miterlimit:10;}
	.st13{fill:none;stroke:#FFD455;stroke-width:3.5;stroke-miterlimit:10;}
	.st14{fill:none;stroke:#8864DD;stroke-width:4.5;stroke-miterlimit:10;}
	.st15{fill:none;stroke:#FF495F;stroke-width:5;stroke-miterlimit:10;}
	.st16{fill:none;stroke:#4FE084;stroke-width:4;stroke-miterlimit:10;}
	.st17{fill:none;stroke:#8864DD;stroke-width:3;stroke-miterlimit:10;}
	.st18{fill:none;stroke:#4FE084;stroke-width:2;stroke-miterlimit:10;}
	.st19{fill:none;stroke:#8864DD;stroke-width:1.5;stroke-miterlimit:10;}
	.st20{fill:none;stroke:#FF495F;stroke-miterlimit:10;}
	.st21{fill:none;stroke:#8864DD;stroke-width:4;stroke-miterlimit:10;}
</style>
<g>
	<path class="st0" d="M0,27.9C67.9,27.6,137.7,22.4,201.7-2" style="stroke:#8864DD; stroke-width:5"/>
	<path class="st1" d="M0,63.9c105.8,0,210-0.4,306.8-65.9" style="stroke:#FFD455; stroke-width:4.5"/>
	<path class="st2" d="M0,100c125-1.5,243,10.2,355.7-75.2c10.8-8.2,23.3-18.5,32-26.8"/>
	<path class="st3" d="M0,136.9c138.7-5.5,268.7,17.6,392.3-76.1C418.4,41,440.4,18.6,455.7-2"/>
	<path class="st4" d="M0,175.1c152.4-12.7,294.5,23.6,428.8-78.3c41.3-31.3,67.8-65.6,85.9-98.8"/>
	<path class="st5" d="M0,215.1c166.4-23.4,320.3,27.6,465.4-82.3c56.1-42.5,82.2-87.7,102.3-133.6"/>
	<path class="st6" d="M0,257.5c180.5-38.1,346.4,29.3,502-88.7c70.5-53.5,92.2-110.6,116.2-169.6"/>
	<path class="st7" d="M0,302.7c194.7-57.2,372.5,28,538.6-97.9c84.6-64.2,99.9-133.1,132.3-205.4"/>
	<path class="st8" d="M0,351.1c209.1-81.1,398.7,23.4,575.2-110.4C673.8,166,677.8,85.1,725.4-0.8"/>
	<path class="st9" d="M0,403.2c223.6-110,425,15.1,611.7-126.4C724,191.6,714.4,97.9,785.7-1.8"/>
	<path class="st10" d="M0,459.2c238.3-144.5,451.5,2.7,648.3-146.5C773.9,217.5,745.5,112,850.6-1.8"/>
	<path class="st11" d="M0,519.6c8.5-6.2,17.3-12.3,26.5-18.1c242.4-155,458.8-1.5,658.4-152.8C823.6,243.5,774.2,126.3,924.7-1.8"/>
	<path class="st12" d="M0,585c18.9-16.7,39.9-32.8,63.1-47.6c242.4-155,458.8-1.5,658.4-152.8c139.2-105.5,88-221.2,240.5-349.9
		c15-12.6,33.5-25.9,49.3-36.4"/>
	<path class="st13" d="M0,656.6c27.5-29.3,60.3-58,99.6-83.1C342,418.5,558.4,572,758,420.7c139.2-105.5,88-221.2,240.5-349.9
		c34.6-29.2,75.7-54.3,113.8-72.5"/>
	<path class="st2" d="M0,735.8c33.3-43.5,77.6-88.9,136.2-126.4c242.4-155,458.8-1.5,658.4-152.8c139.2-105.5,88-221.2,240.5-349.9
		c63.2-53.3,138.6-88.3,209.9-108.4"/>
	<path class="st14" d="M0,825.2C35,768,89.5,698.6,172.8,645.4c242.4-155,458.8-1.5,658.4-152.8c139.2-105.5,88-221.2,240.5-349.9
		C1210.3,25.7,1407.8,7,1536.5,8.5"/>
	<path class="st15" d="M32.6,867.8c34.8-58.4,90.3-131.1,176.8-186.4c242.4-155,458.8-1.5,658.4-152.8
		c139.2-105.5,88-221.2,240.5-349.9C1240.6,67,1409.5,44,1536.5,43.5"/>
	<path class="st1" d="M92.2,867.8c34.8-50.4,84.2-106,153.7-150.5c242.4-155,458.8-1.5,658.4-152.8
		c139.2-105.5,88-221.2,240.5-349.9c120-101.2,270-129.5,391.6-134.3" style="stroke:#FFD455; stroke-width:4.5"/>
	<path class="st16" d="M155.7,867.8c32.1-39.8,73.6-80.4,126.9-114.5c242.4-155,458.8-1.5,658.4-152.8
		c139.2-105.5,88-221.2,240.5-349.9c108.2-91.3,240.8-123.3,355-132.2"/>
	<path class="st13" d="M223.9,867.8c26.5-27.7,58-54.7,95.2-78.5c242.4-155,458.8-1.5,658.4-152.8c139.2-105.5,88-221.2,240.5-349.9
		c96.8-81.7,213.2-115.9,318.5-128.6"/>
	<path class="st17" d="M298.5,867.8c17.4-14.9,36.4-29.2,57.2-42.5c242.4-155,458.8-1.5,658.4-152.8
		c139.2-105.5,88-221.2,240.5-349.9c85.7-72.3,186.8-107.4,281.9-123.3"/>
	<path class="st5" d="M382.3,867.8c3.3-2.2,6.6-4.4,10-6.5c242.4-155,458.8-1.5,658.4-152.8c139.2-105.5,88-221.2,240.5-349.9
		c74.8-63.1,161.3-97.9,245.3-116.3"/>
	<path class="st18" d="M481.9,867.8c221.1-104.6,420.4,16.8,605.3-123.3c139.2-105.5,88-221.2,240.5-349.9
		c64-54,136.5-87.2,208.7-107.2"/>
	<path class="st19" d="M628.6,867.8c177.8-35.1,341.6,29.2,495.3-87.4c139.2-105.5,88-221.2,240.5-349.9
		c53.2-44.9,112.2-75.4,172.1-95.9"/>
	<path class="st20" d="M1064.3,867.8c32.5-11.1,64.5-27.4,96.1-51.4c139.2-105.5,88-221.2,240.5-349.9
		c42.3-35.7,88.3-62.3,135.6-82.1"/>
	<path class="st7" d="M1175,867.8c7.3-4.7,14.7-9.9,22-15.4c139.2-105.5,88-221.2,240.5-349.9c31.3-26.4,64.6-47.9,99-65.2"/>
	<path class="st6" d="M1258.3,867.8c108.8-100,73.1-208.9,215.8-329.4c20.1-16.9,40.9-31.8,62.4-44.9"/>
	<path class="st5" d="M1328,867.8c69.6-90,56.9-187.3,182.7-293.4c8.5-7.1,17.1-13.9,25.8-20.4"/>
	<path class="st12" d="M1388.3,867.8c43.3-76.9,49.3-159,147.3-247.3"/>
	<path class="st13" d="M1442.8,867.8c24.5-55.3,40.5-113.2,92.9-174.1"/>
	<path class="st21" d="M1494.4,867.8c11.6-28.4,23.4-57.6,41.3-87.4"/>
</g>
</svg>